# xmcd
#
# Track frame offsets:
# 150
# 9402
# 20769
# 32388
# 43369
# 52990
# 63836
# 73642
# 86150
# 97539
# 106623
# 116378
# 129356
# 140566
# 151552
# 161912
# 175271
# 187041
# 197624
# 207267
# 217246
#
# Disc length: 3035 seconds
#
# Revision: 0
# Processed by: cddbd v1.4PL0 Copyright (c) Steve Scherf et al.
# Submitted via: Axialis_AX_CDPlayer 2.6
#
DISCID=190bd915
DTITLE=Chet Atkins and Hank0 Snow - Chet - C.B. Atkins and C.E.Snow by special r
DTITLE=euqest
DYEAR=1900
DGENRE=
TTITLE0=Foggy mountain top
TTITLE1=Truck drivers
TTITLE2=Bandera
TTITLE3=Make the world go away
TTITLE4=Oh baba mine
TTITLE5=Oklahoma hills
TTITLE6=Just out of reach
TTITLE7=Wabash canonball
TTITLE8=Release me
TTITLE9=Going down the road
TTITLE10=Limbo rock
TTITLE11=Tammy wheeels
TTITLE12=Everybody does it in Hawaii
TTITLE13=Tiptoeing
TTITLE14=Poison love
TTITLE15=Hold me tight
TTITLE16=Jamaica farewell
TTITLE17=I saw the light
TTITLE18=Green leaves of summer
TTITLE19=Difficult
TTITLE20=
EXTD=
EXTT0=
EXTT1=
EXTT2=
EXTT3=
EXTT4=
EXTT5=
EXTT6=
EXTT7=
EXTT8=
EXTT9=
EXTT10=
EXTT11=
EXTT12=
EXTT13=
EXTT14=
EXTT15=
EXTT16=
EXTT17=
EXTT18=
EXTT19=
EXTT20=
PLAYORDER=
